<svg width="302" height="202" viewBox="0 0 302 202" fill="none" xmlns="http://www.w3.org/2000/svg">
<g filter="url(#filter0_d_331_1467)">
<g clip-path="url(#clip0_331_1467)">
<rect x="0.847168" width="300" height="200" fill="#130C25"/>
<path d="M57.1606 141.88L90.5563 117.547L144.677 123.84L176.311 71.9844L231.774 104.037" stroke="#C9A84C" stroke-width="2.1259" stroke-dasharray="4.25 4.25"/>
<g filter="url(#filter1_d_331_1467)">
<ellipse cx="56.238" cy="141.124" rx="8.39086" ry="8.39085" fill="#1D1E38"/>
<path d="M56.2378 133.796C60.2848 133.796 63.5658 137.077 63.5659 141.124C63.5659 145.171 60.2849 148.452 56.2378 148.452C52.1908 148.452 48.9097 145.171 48.9097 141.124C48.9098 137.077 52.1909 133.796 56.2378 133.796Z" stroke="#C9A84C" stroke-width="2.1259"/>
</g>
<path d="M90.8081 105.603C97.1722 105.603 102.331 110.762 102.332 117.126C102.332 123.49 97.1723 128.649 90.8081 128.649C84.4441 128.649 79.2847 123.49 79.2847 117.126C79.2848 110.762 84.4442 105.603 90.8081 105.603Z" fill="#1D1E38" stroke="#C9A84C" stroke-width="2.1259"/>
<path d="M145.516 107.784C154.197 107.784 161.235 114.822 161.235 123.503C161.235 132.184 154.197 139.222 145.516 139.222C136.835 139.221 129.797 132.184 129.797 123.503C129.798 114.822 136.835 107.784 145.516 107.784Z" fill="#1D1E38" stroke="#C9A84C" stroke-width="2.1259"/>
<path d="M176.06 51.0625C187.058 51.0627 195.974 59.9794 195.974 70.9775C195.974 81.9755 187.058 90.8914 176.06 90.8916C165.062 90.8916 156.145 81.9756 156.145 70.9775C156.145 59.9792 165.062 51.0625 176.06 51.0625Z" fill="#1D1E38" stroke="#C9A84C" stroke-width="2.1259"/>
<path d="M232.11 83.1152C243.108 83.1154 252.024 92.0321 252.024 103.03C252.024 114.028 243.108 122.944 232.11 122.944C221.112 122.944 212.196 114.028 212.195 103.03C212.195 92.032 221.112 83.1152 232.11 83.1152Z" fill="#1D1E38" stroke="#C9A84C" stroke-width="2.1259"/>
<ellipse cx="56.2375" cy="141.125" rx="2.51726" ry="2.51725" fill="white"/>
</g>
<rect x="0.953071" y="0.105903" width="299.788" height="199.788" stroke="black" stroke-width="0.211806"/>
</g>
<defs>
<filter id="filter0_d_331_1467" x="-5.41806e-05" y="0" width="301.694" height="201.694" filterUnits="userSpaceOnUse" color-interpolation-filters="sRGB">
<feFlood flood-opacity="0" result="BackgroundImageFix"/>
<feColorMatrix in="SourceAlpha" type="matrix" values="0 0 0 0 0 0 0 0 0 0 0 0 0 0 0 0 0 0 127 0" result="hardAlpha"/>
<feOffset dy="0.847222"/>
<feGaussianBlur stdDeviation="0.423611"/>
<feComposite in2="hardAlpha" operator="out"/>
<feColorMatrix type="matrix" values="0 0 0 0 0 0 0 0 0 0 0 0 0 0 0 0 0 0 0.25 0"/>
<feBlend mode="normal" in2="BackgroundImageFix" result="effect1_dropShadow_331_1467"/>
<feBlend mode="normal" in="SourceGraphic" in2="effect1_dropShadow_331_1467" result="shape"/>
</filter>
<filter id="filter1_d_331_1467" x="37.2177" y="122.104" width="38.0408" height="38.0403" filterUnits="userSpaceOnUse" color-interpolation-filters="sRGB">
<feFlood flood-opacity="0" result="BackgroundImageFix"/>
<feColorMatrix in="SourceAlpha" type="matrix" values="0 0 0 0 0 0 0 0 0 0 0 0 0 0 0 0 0 0 127 0" result="hardAlpha"/>
<feOffset/>
<feGaussianBlur stdDeviation="5.31476"/>
<feComposite in2="hardAlpha" operator="out"/>
<feColorMatrix type="matrix" values="0 0 0 0 0.788235 0 0 0 0 0.658824 0 0 0 0 0.298039 0 0 0 1 0"/>
<feBlend mode="normal" in2="BackgroundImageFix" result="effect1_dropShadow_331_1467"/>
<feBlend mode="normal" in="SourceGraphic" in2="effect1_dropShadow_331_1467" result="shape"/>
</filter>
<clipPath id="clip0_331_1467">
<rect x="0.847168" width="300" height="200" fill="white"/>
</clipPath>
</defs>
</svg>
