<svg width="302" height="202" viewBox="0 0 302 202" fill="none" xmlns="http://www.w3.org/2000/svg">
<g filter="url(#filter0_d_331_1467)">
<g clip-path="url(#clip0_331_1467)">
<rect x="0.847168" width="300" height="200" fill="#0B0F1E"/>
<path d="M7.24745 82.8087L7.1548 82.9493L7.22333 83.1031L7.08273 83.0105L6.92891 83.079L7.02156 82.9384L6.95304 82.7846L7.09364 82.8772L7.24745 82.8087Z" fill="white"/>
<path d="M47.308 94.8233L47.2154 94.9639L47.2839 95.1178L47.1433 95.0251L46.9895 95.0936L47.0821 94.953L47.0136 94.7992L47.1542 94.8919L47.308 94.8233Z" fill="white"/>
<path d="M22.8207 108.637L22.728 108.777L22.7966 108.931L22.656 108.839L22.5022 108.907L22.5948 108.766L22.5263 108.613L22.6669 108.705L22.8207 108.637Z" fill="white"/>
<path d="M26.5878 86.6612L26.4951 86.8018L26.5637 86.9556L26.4231 86.863L26.2692 86.9315L26.3619 86.7909L26.2934 86.6371L26.434 86.7298L26.5878 86.6612Z" fill="white"/>
<path d="M15.0766 91.8936L14.9839 92.0343L15.0524 92.1881L14.9118 92.0954L14.758 92.1639L14.8507 92.0233L14.7821 91.8695L14.9227 91.9622L15.0766 91.8936Z" fill="white"/>
<path d="M87.9101 105.079L87.8174 105.22L87.8859 105.374L87.7453 105.281L87.5915 105.349L87.6842 105.209L87.6156 105.055L87.7562 105.148L87.9101 105.079Z" fill="white"/>
<path d="M51.2846 83.3136L51.1919 83.4542L51.2604 83.608L51.1198 83.5153L50.966 83.5839L51.0587 83.4433L50.9901 83.2894L51.1308 83.3821L51.2846 83.3136Z" fill="white"/>
<path d="M140.023 95.4522L139.931 95.5928L139.999 95.7467L139.859 95.654L139.705 95.7225L139.797 95.5819L139.729 95.4281L139.87 95.5208L140.023 95.4522Z" fill="white"/>
<path d="M91.4682 129.775L91.3755 129.916L91.444 130.07L91.3034 129.977L91.1496 130.046L91.2423 129.905L91.1737 129.751L91.3143 129.844L91.4682 129.775Z" fill="white"/>
<path d="M51.0751 113.242L50.9824 113.383L51.051 113.537L50.9104 113.444L50.7566 113.513L50.8492 113.372L50.7807 113.218L50.9213 113.311L51.0751 113.242Z" fill="white"/>
<path d="M49.4003 145.682L49.3076 145.822L49.3762 145.976L49.2356 145.883L49.0817 145.952L49.1744 145.811L49.1059 145.658L49.2465 145.75L49.4003 145.682Z" fill="white"/>
<path d="M174.557 142.752L174.464 142.893L174.533 143.046L174.392 142.954L174.238 143.022L174.331 142.882L174.263 142.728L174.403 142.821L174.557 142.752Z" fill="white"/>
<path d="M214.95 101.522L214.857 101.662L214.926 101.816L214.785 101.723L214.632 101.792L214.724 101.651L214.656 101.497L214.796 101.59L214.95 101.522Z" fill="white"/>
<path d="M272.505 138.358L272.413 138.498L272.481 138.652L272.341 138.559L272.187 138.628L272.279 138.487L272.211 138.333L272.351 138.426L272.505 138.358Z" fill="white"/>
<path d="M170.79 165.983L170.697 166.124L170.766 166.278L170.625 166.185L170.471 166.254L170.564 166.113L170.496 165.959L170.636 166.052L170.79 165.983Z" fill="white"/>
<path d="M113.862 149.448L113.77 149.589L113.838 149.743L113.697 149.65L113.544 149.719L113.636 149.578L113.568 149.424L113.708 149.517L113.862 149.448Z" fill="white"/>
<path d="M19.8905 132.078L19.7979 132.219L19.8664 132.373L19.7258 132.28L19.572 132.349L19.6646 132.208L19.5961 132.054L19.7367 132.147L19.8905 132.078Z" fill="white"/>
<path d="M87.2821 138.984L87.1895 139.125L87.258 139.279L87.1174 139.186L86.9636 139.255L87.0562 139.114L86.9877 138.96L87.1283 139.053L87.2821 138.984Z" fill="white"/>
<path d="M205.951 139.612L205.858 139.753L205.926 139.907L205.786 139.814L205.632 139.883L205.725 139.742L205.656 139.588L205.797 139.681L205.951 139.612Z" fill="white"/>
<path d="M183.138 188.796L183.045 188.937L183.114 189.09L182.973 188.998L182.82 189.066L182.912 188.926L182.844 188.772L182.984 188.865L183.138 188.796Z" fill="white"/>
<path d="M116.792 156.356L116.7 156.496L116.768 156.65L116.628 156.557L116.474 156.626L116.566 156.485L116.498 156.331L116.639 156.424L116.792 156.356Z" fill="white"/>
<path d="M162.209 118.475L162.116 118.615L162.185 118.769L162.044 118.676L161.89 118.745L161.983 118.604L161.914 118.451L162.055 118.543L162.209 118.475Z" fill="white"/>
<path d="M22.1928 163.053L22.1001 163.193L22.1686 163.347L22.028 163.255L21.8742 163.323L21.9669 163.183L21.8983 163.029L22.039 163.121L22.1928 163.053Z" fill="white"/>
<path d="M137.512 160.751L137.419 160.892L137.488 161.045L137.347 160.953L137.194 161.021L137.286 160.881L137.218 160.727L137.358 160.82L137.512 160.751Z" fill="white"/>
<path d="M104.026 190.889L103.933 191.029L104.002 191.183L103.861 191.091L103.707 191.159L103.8 191.018L103.731 190.865L103.872 190.957L104.026 190.889Z" fill="white"/>
<path d="M266.435 96.0802L266.343 96.2208L266.411 96.3746L266.271 96.2819L266.117 96.3505L266.21 96.2099L266.141 96.056L266.282 96.1487L266.435 96.0802Z" fill="white"/>
<path d="M284.225 87.2901L284.133 87.4307L284.201 87.5845L284.061 87.4919L283.907 87.5604L284 87.4198L283.931 87.266L284.072 87.3587L284.225 87.2901Z" fill="white"/>
<path d="M215.159 187.749L215.066 187.89L215.135 188.044L214.994 187.951L214.841 188.019L214.933 187.879L214.865 187.725L215.005 187.818L215.159 187.749Z" fill="white"/>
<path d="M74.5516 169.701L74.3659 169.983L74.5033 170.291L74.2215 170.105L73.9133 170.243L74.0989 169.961L73.9616 169.653L74.2434 169.838L74.5516 169.701Z" fill="white"/>
<path d="M199.708 109.426L199.522 109.707L199.66 110.016L199.378 109.83L199.07 109.967L199.255 109.685L199.118 109.377L199.4 109.563L199.708 109.426Z" fill="white"/>
<path d="M150.943 83.0535L150.758 83.3353L150.895 83.6435L150.613 83.4579L150.305 83.5952L150.491 83.3134L150.353 83.0052L150.635 83.1909L150.943 83.0535Z" fill="white"/>
<path d="M105.318 83.6824L105.132 83.9642L105.269 84.2724L104.988 84.0868L104.679 84.2241L104.865 83.9423L104.728 83.6341L105.009 83.8198L105.318 83.6824Z" fill="white"/>
<path d="M236.753 76.9842L236.567 77.266L236.704 77.5742L236.423 77.3885L236.114 77.5259L236.3 77.2441L236.163 76.9359L236.445 77.1215L236.753 76.9842Z" fill="white"/>
<path d="M18.4617 188.537L18.2761 188.819L18.4134 189.127L18.1316 188.941L17.8234 189.079L18.0091 188.797L17.8718 188.489L18.1535 188.674L18.4617 188.537Z" fill="white"/>
<path d="M8.20637 139.772L8.02071 140.054L8.15804 140.362L7.87627 140.177L7.56805 140.314L7.75371 140.032L7.61638 139.724L7.89815 139.91L8.20637 139.772Z" fill="white"/>
<path d="M39.0204 57.919L38.9278 58.0596L38.9963 58.2135L38.8557 58.1208L38.7019 58.1893L38.7945 58.0487L38.726 57.8949L38.8666 57.9876L39.0204 57.919Z" fill="white"/>
<path d="M79.0809 69.9347L78.9883 70.0753L79.0568 70.2291L78.9162 70.1364L78.7624 70.205L78.8551 70.0644L78.7865 69.9105L78.9271 70.0032L79.0809 69.9347Z" fill="white"/>
<path d="M54.5936 83.7472L54.501 83.8878L54.5695 84.0416L54.4289 83.9489L54.2751 84.0175L54.3678 83.8769L54.2992 83.723L54.4398 83.8157L54.5936 83.7472Z" fill="white"/>
<path d="M58.3612 61.7716L58.2686 61.9122L58.3371 62.066L58.1965 61.9733L58.0427 62.0419L58.1353 61.9013L58.0668 61.7475L58.2074 61.8401L58.3612 61.7716Z" fill="white"/>
<path d="M46.85 67.004L46.7573 67.1446L46.8259 67.2984L46.6853 67.2058L46.5315 67.2743L46.6241 67.1337L46.5556 66.9799L46.6962 67.0725L46.85 67.004Z" fill="white"/>
<path d="M119.683 80.1895L119.591 80.3301L119.659 80.484L119.519 80.3913L119.365 80.4598L119.458 80.3192L119.389 80.1654L119.53 80.2581L119.683 80.1895Z" fill="white"/>
<path d="M83.0575 58.4229L82.9649 58.5635L83.0334 58.7174L82.8928 58.6247L82.739 58.6932L82.8316 58.5526L82.7631 58.3988L82.9037 58.4915L83.0575 58.4229Z" fill="white"/>
<path d="M171.797 70.5616L171.705 70.7022L171.773 70.856L171.633 70.7634L171.479 70.8319L171.571 70.6913L171.503 70.5375L171.643 70.6301L171.797 70.5616Z" fill="white"/>
<path d="M123.241 104.886L123.148 105.026L123.217 105.18L123.076 105.088L122.923 105.156L123.015 105.016L122.947 104.862L123.087 104.954L123.241 104.886Z" fill="white"/>
<path d="M82.848 88.3517L82.7554 88.4923L82.8239 88.6461L82.6833 88.5534L82.5295 88.622L82.6222 88.4813L82.5536 88.3275L82.6942 88.4202L82.848 88.3517Z" fill="white"/>
<path d="M81.1742 120.792L81.0816 120.933L81.1501 121.087L81.0095 120.994L80.8557 121.062L80.9483 120.922L80.8798 120.768L81.0204 120.861L81.1742 120.792Z" fill="white"/>
<path d="M206.33 117.862L206.237 118.003L206.306 118.157L206.165 118.064L206.011 118.133L206.104 117.992L206.036 117.838L206.176 117.931L206.33 117.862Z" fill="white"/>
<path d="M246.723 76.6309L246.63 76.7716L246.699 76.9254L246.558 76.8327L246.405 76.9012L246.497 76.7606L246.429 76.6068L246.569 76.6995L246.723 76.6309Z" fill="white"/>
<path d="M277.908 179.184L277.815 179.324L277.883 179.478L277.743 179.385L277.589 179.454L277.682 179.313L277.613 179.16L277.754 179.252L277.908 179.184Z" fill="white"/>
<path d="M202.563 141.093L202.47 141.233L202.539 141.387L202.398 141.295L202.244 141.363L202.337 141.223L202.268 141.069L202.409 141.161L202.563 141.093Z" fill="white"/>
<path d="M145.636 124.559L145.543 124.699L145.612 124.853L145.471 124.76L145.317 124.829L145.41 124.688L145.341 124.535L145.482 124.627L145.636 124.559Z" fill="white"/>
<path d="M51.0355 179.812L50.9429 179.952L51.0114 180.106L50.8708 180.013L50.717 180.082L50.8097 179.941L50.7411 179.787L50.8817 179.88L51.0355 179.812Z" fill="white"/>
<path d="M51.664 107.188L51.5713 107.328L51.6398 107.482L51.4992 107.389L51.3454 107.458L51.4381 107.317L51.3695 107.163L51.5101 107.256L51.664 107.188Z" fill="white"/>
<path d="M119.056 114.094L118.963 114.234L119.031 114.388L118.891 114.296L118.737 114.364L118.83 114.224L118.761 114.07L118.902 114.162L119.056 114.094Z" fill="white"/>
<path d="M237.724 114.723L237.631 114.863L237.699 115.017L237.559 114.925L237.405 114.993L237.498 114.852L237.429 114.699L237.57 114.791L237.724 114.723Z" fill="white"/>
<path d="M214.911 163.905L214.818 164.046L214.887 164.2L214.746 164.107L214.592 164.176L214.685 164.035L214.617 163.881L214.757 163.974L214.911 163.905Z" fill="white"/>
<path d="M187.075 189.65L186.982 189.79L187.051 189.944L186.91 189.851L186.757 189.92L186.849 189.779L186.781 189.625L186.921 189.718L187.075 189.65Z" fill="white"/>
<path d="M148.565 131.466L148.473 131.607L148.541 131.76L148.401 131.668L148.247 131.736L148.339 131.596L148.271 131.442L148.412 131.534L148.565 131.466Z" fill="white"/>
<path d="M193.982 93.5841L193.889 93.7247L193.958 93.8785L193.817 93.7858L193.663 93.8544L193.756 93.7138L193.687 93.56L193.828 93.6526L193.982 93.5841Z" fill="white"/>
<path d="M53.9657 138.163L53.8731 138.304L53.9416 138.458L53.801 138.365L53.6472 138.433L53.7398 138.293L53.6713 138.139L53.8119 138.232L53.9657 138.163Z" fill="white"/>
<path d="M169.286 135.861L169.193 136.002L169.261 136.156L169.121 136.063L168.967 136.132L169.06 135.991L168.991 135.837L169.132 135.93L169.286 135.861Z" fill="white"/>
<path d="M135.799 165.998L135.706 166.139L135.775 166.293L135.634 166.2L135.48 166.268L135.573 166.128L135.504 165.974L135.645 166.067L135.799 165.998Z" fill="white"/>
<path d="M298.209 71.1905L298.117 71.3311L298.185 71.4849L298.045 71.3923L297.891 71.4608L297.983 71.3202L297.915 71.1664L298.056 71.259L298.209 71.1905Z" fill="white"/>
<path d="M246.933 162.858L246.84 162.999L246.909 163.153L246.768 163.06L246.614 163.129L246.707 162.988L246.639 162.834L246.779 162.927L246.933 162.858Z" fill="white"/>
<path d="M158.119 180.39L157.934 180.672L158.071 180.98L157.789 180.795L157.481 180.932L157.667 180.65L157.529 180.342L157.811 180.528L158.119 180.39Z" fill="white"/>
<path d="M106.325 144.811L106.139 145.093L106.277 145.401L105.995 145.216L105.687 145.353L105.872 145.071L105.735 144.763L106.017 144.949L106.325 144.811Z" fill="white"/>
<path d="M231.481 84.535L231.296 84.8167L231.433 85.125L231.151 84.9393L230.843 85.0766L231.029 84.7949L230.891 84.4866L231.173 84.6723L231.481 84.535Z" fill="white"/>
<path d="M182.716 58.1649L182.53 58.4466L182.668 58.7549L182.386 58.5692L182.078 58.7065L182.263 58.4248L182.126 58.1165L182.408 58.3022L182.716 58.1649Z" fill="white"/>
<path d="M137.091 58.7918L136.905 59.0736L137.043 59.3818L136.761 59.1961L136.453 59.3335L136.638 59.0517L136.501 58.7435L136.783 58.9291L137.091 58.7918Z" fill="white"/>
<path d="M268.526 52.0946L268.34 52.3763L268.477 52.6845L268.196 52.4989L267.887 52.6362L268.073 52.3544L267.936 52.0462L268.217 52.2319L268.526 52.0946Z" fill="white"/>
<path d="M226.249 181.018L226.063 181.3L226.201 181.608L225.919 181.423L225.611 181.56L225.796 181.278L225.659 180.97L225.941 181.156L226.249 181.018Z" fill="white"/>
<path d="M80.1634 175.995L79.9777 176.277L80.1151 176.585L79.8333 176.399L79.5251 176.537L79.7107 176.255L79.5734 175.947L79.8552 176.132L80.1634 175.995Z" fill="white"/>
<path d="M50.2352 163.647L50.0495 163.929L50.1868 164.237L49.9051 164.052L49.5969 164.189L49.7825 163.907L49.6452 163.599L49.927 163.785L50.2352 163.647Z" fill="white"/>
<path d="M39.9798 114.883L39.7941 115.164L39.9315 115.473L39.6497 115.287L39.3415 115.424L39.5271 115.143L39.3898 114.834L39.6716 115.02L39.9798 114.883Z" fill="white"/>
<path d="M139.508 13.5353L139.343 13.5692L139.283 13.7265L139.249 13.5615L139.091 13.5012L139.256 13.4673L139.317 13.3101L139.351 13.475L139.508 13.5353Z" fill="white"/>
<path d="M159.339 50.3586L159.174 50.3925L159.114 50.5497L159.08 50.3848L158.923 50.3245L159.087 50.2906L159.148 50.1333L159.182 50.2983L159.339 50.3586Z" fill="white"/>
<path d="M132.256 42.8117L132.091 42.8456L132.031 43.0028L131.997 42.8379L131.84 42.7776L132.004 42.7437L132.065 42.5865L132.099 42.7514L132.256 42.8117Z" fill="white"/>
<path d="M150.459 29.9357L150.294 29.9696L150.234 30.1269L150.2 29.9619L150.043 29.9016L150.208 29.8677L150.268 29.7105L150.302 29.8754L150.459 29.9357Z" fill="white"/>
<path d="M138.62 25.4963L138.455 25.5302L138.394 25.6874L138.361 25.5225L138.203 25.4622L138.368 25.4282L138.429 25.271L138.462 25.436L138.62 25.4963Z" fill="white"/>
<path d="M180.797 86.3205L180.632 86.3544L180.572 86.5116L180.538 86.3467L180.381 86.2864L180.546 86.2525L180.606 86.0952L180.64 86.2602L180.797 86.3205Z" fill="white"/>
<path d="M170.29 45.0305L170.125 45.0644L170.065 45.2216L170.031 45.0566L169.874 44.9963L170.039 44.9624L170.099 44.8052L170.133 44.9701L170.29 45.0305Z" fill="white"/>
<path d="M224.455 116.362L224.29 116.396L224.229 116.554L224.195 116.389L224.038 116.328L224.203 116.294L224.263 116.137L224.297 116.302L224.455 116.362Z" fill="white"/>
<path d="M165.85 106.299L165.685 106.333L165.625 106.49L165.591 106.325L165.434 106.265L165.599 106.231L165.659 106.074L165.693 106.239L165.85 106.299Z" fill="white"/>
<path d="M148.98 66.0461L148.815 66.08L148.754 66.2372L148.72 66.0723L148.563 66.012L148.728 65.9781L148.788 65.8208L148.822 65.9858L148.98 66.0461Z" fill="white"/>
<path d="M124.856 87.801L124.692 87.8349L124.631 87.9921L124.597 87.8272L124.44 87.7668L124.605 87.7329L124.665 87.5757L124.699 87.7407L124.856 87.801Z" fill="white"/>
<path d="M215.427 174.227L215.262 174.261L215.202 174.418L215.168 174.253L215.011 174.193L215.176 174.159L215.236 174.001L215.27 174.166L215.427 174.227Z" fill="white"/>
<path d="M273.144 173.635L272.979 173.669L272.919 173.826L272.885 173.661L272.728 173.601L272.893 173.567L272.953 173.41L272.987 173.575L273.144 173.635Z" fill="white"/>
<path d="M196.336 187.99L196.172 188.024L196.111 188.182L196.077 188.017L195.92 187.956L196.085 187.922L196.145 187.765L196.179 187.93L196.336 187.99Z" fill="white"/>
<path d="M167.774 136.046L167.609 136.08L167.549 136.237L167.515 136.072L167.358 136.012L167.523 135.978L167.583 135.821L167.617 135.986L167.774 136.046Z" fill="white"/>
<path d="M80.9034 161.057L80.7384 161.091L80.6781 161.248L80.6442 161.083L80.487 161.023L80.6519 160.989L80.7122 160.832L80.7461 160.997L80.9034 161.057Z" fill="white"/>
<path d="M61.812 108.223L61.6471 108.257L61.5868 108.414L61.5529 108.249L61.3957 108.189L61.5606 108.155L61.6209 107.998L61.6548 108.163L61.812 108.223Z" fill="white"/>
<path d="M113.609 57.3146L113.444 57.3485L113.384 57.5058L113.35 57.3408L113.193 57.2805L113.357 57.2466L113.418 57.0894L113.452 57.2543L113.609 57.3146Z" fill="white"/>
<path d="M156.379 109.852L156.214 109.886L156.154 110.043L156.12 109.878L155.963 109.818L156.128 109.784L156.188 109.626L156.222 109.791L156.379 109.852Z" fill="white"/>
<path d="M239.846 194.206L239.681 194.24L239.621 194.397L239.587 194.232L239.43 194.172L239.595 194.138L239.655 193.981L239.689 194.146L239.846 194.206Z" fill="white"/>
<path d="M164.962 143.001L164.797 143.035L164.737 143.192L164.703 143.027L164.546 142.967L164.711 142.933L164.771 142.776L164.805 142.941L164.962 143.001Z" fill="white"/>
<path d="M223.863 148.328L223.698 148.362L223.638 148.519L223.604 148.354L223.446 148.294L223.611 148.26L223.672 148.103L223.706 148.268L223.863 148.328Z" fill="white"/>
<path d="M52.1924 129.091L52.0275 129.125L51.9672 129.282L51.9333 129.117L51.776 129.057L51.941 129.023L52.0013 128.866L52.0352 129.031L52.1924 129.091Z" fill="white"/>
<path d="M93.334 80.8449L93.1691 80.8788L93.1088 81.036L93.0749 80.8711L92.9176 80.8108L93.0826 80.7769L93.1429 80.6197L93.1768 80.7846L93.334 80.8449Z" fill="white"/>
<path d="M176.505 160.76L176.34 160.794L176.28 160.951L176.246 160.786L176.089 160.726L176.254 160.692L176.314 160.535L176.348 160.7L176.505 160.76Z" fill="white"/>
<path d="M131.516 158.392L131.351 158.426L131.291 158.583L131.257 158.418L131.1 158.358L131.265 158.324L131.325 158.167L131.359 158.331L131.516 158.392Z" fill="white"/>
<path d="M137.123 184.352L136.792 184.42L136.671 184.735L136.603 184.404L136.288 184.283L136.619 184.215L136.74 183.9L136.808 184.231L137.123 184.352Z" fill="white"/>
<path d="M125.657 122.57L125.327 122.637L125.206 122.953L125.138 122.622L124.823 122.501L125.153 122.433L125.274 122.118L125.342 122.449L125.657 122.57Z" fill="white"/>
<path d="M256.777 168.446L256.447 168.514L256.326 168.829L256.258 168.499L255.943 168.378L256.273 168.31L256.394 167.995L256.462 168.326L256.777 168.446Z" fill="white"/>
<path d="M240.942 115.318L240.612 115.386L240.491 115.701L240.423 115.37L240.108 115.249L240.439 115.181L240.559 114.866L240.627 115.197L240.942 115.318Z" fill="white"/>
<path d="M208.236 83.4992L207.906 83.5672L207.785 83.8822L207.717 83.5517L207.402 83.4309L207.732 83.3629L207.853 83.0479L207.921 83.3784L208.236 83.4992Z" fill="white"/>
<path d="M85.1074 126.12L84.7769 126.188L84.6561 126.503L84.5881 126.173L84.2731 126.052L84.6036 125.984L84.7244 125.669L84.7924 125.999L85.1074 126.12Z" fill="white"/>
<path d="M33.4585 168.002L33.128 168.07L33.0071 168.385L32.9392 168.055L32.6241 167.934L32.9546 167.866L33.0755 167.551L33.1434 167.881L33.4585 168.002Z" fill="white"/>
<path d="M72.6758 96.2268L72.3453 96.2947L72.2244 96.6098L72.1565 96.2792L71.8414 96.1584L72.1719 96.0904L72.2928 95.7754L72.3607 96.1059L72.6758 96.2268Z" fill="white"/>
<path d="M24.7266 140.92L24.396 140.988L24.2752 141.303L24.2072 140.973L23.8922 140.852L24.2227 140.784L24.3436 140.469L24.4115 140.799L24.7266 140.92Z" fill="white"/>
<path d="M99.9063 54.4934L99.5757 54.5613L99.4549 54.8764L99.3869 54.5458L99.0719 54.425L99.4024 54.357L99.5232 54.042L99.5912 54.3725L99.9063 54.4934Z" fill="white"/>
<path d="M170.641 8.50018L170.476 8.53409L170.416 8.69131L170.382 8.52637L170.225 8.46607L170.39 8.43216L170.45 8.27494L170.484 8.43987L170.641 8.50018Z" fill="white"/>
<path d="M143.559 0.953302L143.394 0.987213L143.334 1.14443L143.3 0.979494L143.143 0.919191L143.308 0.88528L143.368 0.728061L143.402 0.892999L143.559 0.953302Z" fill="white"/>
<path d="M192.1 44.4621L191.935 44.496L191.874 44.6532L191.84 44.4883L191.683 44.428L191.848 44.3941L191.909 44.2369L191.942 44.4018L192.1 44.4621Z" fill="white"/>
<path d="M181.592 3.17205L181.427 3.20596L181.367 3.36318L181.333 3.19824L181.176 3.13794L181.341 3.10403L181.401 2.94681L181.435 3.11175L181.592 3.17205Z" fill="white"/>
<path d="M235.757 74.5051L235.592 74.539L235.532 74.6962L235.498 74.5313L235.341 74.4709L235.506 74.437L235.566 74.2798L235.6 74.4448L235.757 74.5051Z" fill="white"/>
<path d="M177.152 64.4406L176.987 64.4745L176.927 64.6317L176.893 64.4668L176.736 64.4065L176.901 64.3726L176.961 64.2154L176.995 64.3803L177.152 64.4406Z" fill="white"/>
<path d="M160.282 24.1877L160.117 24.2216L160.057 24.3788L160.023 24.2139L159.865 24.1536L160.03 24.1197L160.091 23.9624L160.125 24.1274L160.282 24.1877Z" fill="white"/>
<path d="M136.159 45.9426L135.994 45.9765L135.933 46.1337L135.9 45.9688L135.742 45.9084L135.907 45.8745L135.968 45.7173L136.002 45.8823L136.159 45.9426Z" fill="white"/>
<path d="M226.73 132.368L226.565 132.402L226.505 132.559L226.471 132.395L226.314 132.334L226.479 132.3L226.539 132.143L226.573 132.308L226.73 132.368Z" fill="white"/>
<path d="M284.446 131.777L284.281 131.81L284.221 131.968L284.187 131.803L284.03 131.742L284.195 131.709L284.255 131.551L284.289 131.716L284.446 131.777Z" fill="white"/>
<path d="M299.098 198.522L298.933 198.556L298.872 198.713L298.839 198.548L298.681 198.488L298.846 198.454L298.907 198.296L298.94 198.461L299.098 198.522Z" fill="white"/>
<path d="M125.503 176.174L125.339 176.208L125.278 176.365L125.244 176.2L125.087 176.14L125.252 176.106L125.312 175.949L125.346 176.114L125.503 176.174Z" fill="white"/>
<path d="M207.639 146.132L207.474 146.166L207.413 146.323L207.38 146.158L207.222 146.098L207.387 146.064L207.448 145.907L207.481 146.072L207.639 146.132Z" fill="white"/>
<path d="M179.076 94.1877L178.911 94.2216L178.851 94.3788L178.817 94.2139L178.66 94.1536L178.825 94.1197L178.885 93.9624L178.919 94.1274L179.076 94.1877Z" fill="white"/>
<path d="M92.2056 119.198L92.0407 119.232L91.9804 119.39L91.9464 119.225L91.7892 119.164L91.9542 119.13L92.0145 118.973L92.0484 119.138L92.2056 119.198Z" fill="white"/>
<path d="M73.1148 66.3644L72.9498 66.3983L72.8895 66.5556L72.8556 66.3906L72.6984 66.3303L72.8633 66.2964L72.9237 66.1392L72.9576 66.3041L73.1148 66.3644Z" fill="white"/>
<path d="M124.912 15.4562L124.747 15.4901L124.687 15.6474L124.653 15.4824L124.496 15.4221L124.661 15.3882L124.721 15.231L124.755 15.3959L124.912 15.4562Z" fill="white"/>
<path d="M167.681 67.9933L167.516 68.0273L167.456 68.1845L167.422 68.0195L167.265 67.9592L167.43 67.9253L167.49 67.7681L167.524 67.933L167.681 67.9933Z" fill="white"/>
<path d="M251.148 152.348L250.984 152.382L250.923 152.539L250.889 152.374L250.732 152.314L250.897 152.28L250.957 152.123L250.991 152.288L251.148 152.348Z" fill="white"/>
<path d="M200.239 170.994L200.074 171.028L200.014 171.185L199.98 171.021L199.823 170.96L199.988 170.926L200.048 170.769L200.082 170.934L200.239 170.994Z" fill="white"/>
<path d="M162.354 169.515L162.189 169.549L162.128 169.706L162.094 169.541L161.937 169.481L162.102 169.447L162.162 169.29L162.196 169.455L162.354 169.515Z" fill="white"/>
<path d="M176.265 101.143L176.1 101.177L176.039 101.334L176.006 101.169L175.848 101.109L176.013 101.075L176.074 100.918L176.107 101.082L176.265 101.143Z" fill="white"/>
<path d="M235.166 106.47L235.001 106.504L234.94 106.661L234.906 106.496L234.749 106.436L234.914 106.402L234.974 106.245L235.008 106.41L235.166 106.47Z" fill="white"/>
<path d="M63.4952 87.2326L63.3302 87.2665L63.2699 87.4237L63.236 87.2588L63.0788 87.1985L63.2437 87.1646L63.304 87.0074L63.3379 87.1723L63.4952 87.2326Z" fill="white"/>
<path d="M104.637 38.9865L104.472 39.0204L104.412 39.1776L104.378 39.0127L104.22 38.9524L104.385 38.9185L104.446 38.7613L104.48 38.9262L104.637 38.9865Z" fill="white"/>
<path d="M187.808 118.902L187.643 118.935L187.582 119.093L187.548 118.928L187.391 118.867L187.556 118.834L187.617 118.676L187.65 118.841L187.808 118.902Z" fill="white"/>
<path d="M88.6543 171.586L88.4894 171.62L88.4291 171.777L88.3952 171.612L88.238 171.552L88.4029 171.518L88.4632 171.361L88.4971 171.526L88.6543 171.586Z" fill="white"/>
<path d="M142.818 116.534L142.653 116.568L142.593 116.725L142.559 116.561L142.402 116.5L142.567 116.466L142.627 116.309L142.661 116.474L142.818 116.534Z" fill="white"/>
<path d="M223.622 192.897L223.457 192.931L223.396 193.088L223.362 192.923L223.205 192.863L223.37 192.829L223.43 192.671L223.464 192.836L223.622 192.897Z" fill="white"/>
<path d="M148.425 142.493L148.095 142.561L147.974 142.876L147.906 142.546L147.591 142.425L147.921 142.357L148.042 142.042L148.11 142.373L148.425 142.493Z" fill="white"/>
<path d="M136.959 80.7111L136.629 80.7791L136.508 81.0941L136.44 80.7636L136.125 80.6428L136.456 80.5748L136.576 80.2598L136.644 80.5903L136.959 80.7111Z" fill="white"/>
<path d="M268.08 126.588L267.75 126.656L267.629 126.971L267.561 126.641L267.246 126.52L267.576 126.452L267.697 126.137L267.765 126.467L268.08 126.588Z" fill="white"/>
<path d="M252.245 73.4592L251.915 73.5271L251.794 73.8422L251.726 73.5117L251.411 73.3908L251.741 73.3229L251.862 73.0078L251.93 73.3383L252.245 73.4592Z" fill="white"/>
<path d="M219.539 41.6408L219.208 41.7088L219.087 42.0238L219.019 41.6933L218.704 41.5725L219.035 41.5045L219.156 41.1895L219.224 41.52L219.539 41.6408Z" fill="white"/>
<path d="M196.156 191.112L195.826 191.18L195.705 191.496L195.637 191.165L195.322 191.044L195.652 190.976L195.773 190.661L195.841 190.992L196.156 191.112Z" fill="white"/>
<path d="M96.4097 84.2629L96.0791 84.3308L95.9583 84.6459L95.8904 84.3154L95.5753 84.1945L95.9058 84.1266L96.0267 83.8115L96.0946 84.142L96.4097 84.2629Z" fill="white"/>
<path d="M44.7612 126.144L44.4307 126.212L44.3099 126.527L44.2419 126.196L43.9269 126.075L44.2574 126.007L44.3782 125.692L44.4462 126.023L44.7612 126.144Z" fill="white"/>
<path d="M83.979 54.3684L83.6485 54.4363L83.5276 54.7514L83.4597 54.4208L83.1446 54.3L83.4752 54.232L83.596 53.917L83.664 54.2475L83.979 54.3684Z" fill="white"/>
<path d="M36.0298 99.0617L35.6993 99.1297L35.5784 99.4447L35.5105 99.1142L35.1954 98.9934L35.5259 98.9254L35.6468 98.6104L35.7147 98.9409L36.0298 99.0617Z" fill="white"/>
<path d="M111.209 12.635L110.879 12.7029L110.758 13.018L110.69 12.6874L110.375 12.5666L110.706 12.4986L110.826 12.1836L110.894 12.5141L111.209 12.635Z" fill="white"/>
<path d="M265.352 10.9758L265.187 11.0097L265.126 11.1669L265.092 11.002L264.935 10.9417L265.1 10.9077L265.16 10.7505L265.194 10.9155L265.352 10.9758Z" fill="white"/>
<path d="M250.404 30.9543L250.239 30.9882L250.179 31.1454L250.145 30.9805L249.988 30.9202L250.153 30.8863L250.213 30.729L250.247 30.894L250.404 30.9543Z" fill="white"/>
<path d="M209.411 12.4562L209.246 12.4901L209.185 12.6474L209.152 12.4824L208.994 12.4221L209.159 12.3882L209.22 12.231L209.253 12.3959L209.411 12.4562Z" fill="white"/>
<path d="M299.981 98.884L299.817 98.9179L299.756 99.0751L299.722 98.9102L299.565 98.8499L299.73 98.8159L299.79 98.6587L299.824 98.8237L299.981 98.884Z" fill="white"/>
<path d="M198.755 142.689L198.59 142.723L198.53 142.88L198.496 142.715L198.339 142.655L198.504 142.621L198.564 142.463L198.598 142.628L198.755 142.689Z" fill="white"/>
<path d="M280.891 112.646L280.726 112.68L280.665 112.837L280.632 112.672L280.474 112.612L280.639 112.578L280.7 112.42L280.733 112.585L280.891 112.646Z" fill="white"/>
<path d="M252.328 60.7013L252.163 60.7353L252.103 60.8925L252.069 60.7275L251.912 60.6672L252.077 60.6333L252.137 60.4761L252.171 60.641L252.328 60.7013Z" fill="white"/>
<path d="M165.458 85.7121L165.293 85.746L165.232 85.9032L165.198 85.7383L165.041 85.678L165.206 85.6441L165.266 85.4869L165.3 85.6518L165.458 85.7121Z" fill="white"/>
<path d="M146.366 32.8791L146.201 32.913L146.141 33.0702L146.107 32.9053L145.95 32.845L146.115 32.8111L146.175 32.6538L146.209 32.8188L146.366 32.8791Z" fill="white"/>
<path d="M240.933 34.507L240.768 34.5409L240.708 34.6981L240.674 34.5332L240.517 34.4729L240.682 34.439L240.742 34.2818L240.776 34.4467L240.933 34.507Z" fill="white"/>
<path d="M273.491 137.509L273.326 137.543L273.266 137.7L273.232 137.535L273.074 137.475L273.239 137.441L273.3 137.284L273.334 137.449L273.491 137.509Z" fill="white"/>
<path d="M235.606 136.028L235.441 136.062L235.38 136.22L235.346 136.055L235.189 135.994L235.354 135.96L235.414 135.803L235.448 135.968L235.606 136.028Z" fill="white"/>
<path d="M249.516 67.6574L249.351 67.6913L249.291 67.8485L249.257 67.6836L249.1 67.6233L249.265 67.5894L249.325 67.4322L249.359 67.5971L249.516 67.6574Z" fill="white"/>
<path d="M136.747 53.7463L136.582 53.7802L136.521 53.9374L136.487 53.7725L136.33 53.7122L136.495 53.6782L136.555 53.521L136.589 53.686L136.747 53.7463Z" fill="white"/>
<path d="M177.889 5.50018L177.724 5.53409L177.663 5.69131L177.63 5.52637L177.472 5.46607L177.637 5.43216L177.698 5.27494L177.731 5.43987L177.889 5.50018Z" fill="white"/>
<path d="M261.06 85.4152L260.895 85.4491L260.834 85.6063L260.8 85.4414L260.643 85.3811L260.808 85.3472L260.868 85.19L260.902 85.3549L261.06 85.4152Z" fill="white"/>
<path d="M230.869 181.019L230.704 181.053L230.644 181.21L230.61 181.045L230.453 180.985L230.618 180.951L230.678 180.793L230.712 180.958L230.869 181.019Z" fill="white"/>
<path d="M161.905 138.101L161.74 138.135L161.68 138.292L161.646 138.127L161.489 138.067L161.654 138.033L161.714 137.876L161.748 138.04L161.905 138.101Z" fill="white"/>
<path d="M216.07 83.048L215.905 83.0819L215.845 83.2392L215.811 83.0742L215.654 83.0139L215.819 82.98L215.879 82.8228L215.913 82.9877L216.07 83.048Z" fill="white"/>
<path d="M296.874 159.411L296.709 159.445L296.648 159.602L296.614 159.438L296.457 159.377L296.622 159.343L296.682 159.186L296.716 159.351L296.874 159.411Z" fill="white"/>
<path d="M221.677 109.007L221.346 109.075L221.225 109.39L221.157 109.06L220.842 108.939L221.173 108.871L221.294 108.556L221.362 108.886L221.677 109.007Z" fill="white"/>
<path d="M210.211 47.2248L209.881 47.2928L209.76 47.6078L209.692 47.2773L209.377 47.1564L209.708 47.0885L209.828 46.7734L209.896 47.104L210.211 47.2248Z" fill="white"/>
<path d="M292.791 8.15449L292.46 8.22244L292.339 8.5375L292.271 8.20698L291.956 8.08613L292.287 8.01818L292.408 7.70313L292.475 8.03365L292.791 8.15449Z" fill="white"/>
<path d="M269.408 157.626L269.078 157.694L268.957 158.009L268.889 157.679L268.574 157.558L268.904 157.49L269.025 157.175L269.093 157.505L269.408 157.626Z" fill="white"/>
<path d="M169.662 50.7775L169.331 50.8455L169.21 51.1605L169.142 50.83L168.827 50.7092L169.158 50.6412L169.279 50.3262L169.347 50.6567L169.662 50.7775Z" fill="white"/>
<path d="M118.013 92.6574L117.682 92.7254L117.561 93.0404L117.493 92.7099L117.178 92.5891L117.509 92.5211L117.63 92.2061L117.698 92.5366L118.013 92.6574Z" fill="white"/>
<path d="M157.23 20.883L156.899 20.951L156.779 21.266L156.711 20.9355L156.396 20.8146L156.726 20.7467L156.847 20.4316L156.915 20.7622L157.23 20.883Z" fill="white"/>
<path d="M109.281 65.5764L108.95 65.6443L108.829 65.9594L108.761 65.6289L108.446 65.508L108.777 65.4401L108.898 65.125L108.966 65.4555L109.281 65.5764Z" fill="white"/>
<path d="M57.1606 141.88L90.5563 117.547L144.677 123.84L176.311 71.9844L231.774 104.037" stroke="#C9A84C" stroke-width="2.1259" stroke-dasharray="4.25 4.25"/>
<g filter="url(#filter1_d_331_1467)">
<ellipse cx="56.238" cy="141.124" rx="8.39086" ry="8.39085" fill="#1D1E38"/>
<path d="M56.2378 133.796C60.2848 133.796 63.5658 137.077 63.5659 141.124C63.5659 145.171 60.2849 148.452 56.2378 148.452C52.1908 148.452 48.9097 145.171 48.9097 141.124C48.9098 137.077 52.1909 133.796 56.2378 133.796Z" stroke="#C9A84C" stroke-width="2.1259"/>
</g>
<path d="M90.8081 105.603C97.1722 105.603 102.331 110.762 102.332 117.126C102.332 123.49 97.1723 128.649 90.8081 128.649C84.4441 128.649 79.2847 123.49 79.2847 117.126C79.2848 110.762 84.4442 105.603 90.8081 105.603Z" fill="#1D1E38" stroke="#C9A84C" stroke-width="2.1259"/>
<path d="M145.516 107.784C154.197 107.784 161.235 114.822 161.235 123.503C161.235 132.184 154.197 139.222 145.516 139.222C136.835 139.221 129.797 132.184 129.797 123.503C129.798 114.822 136.835 107.784 145.516 107.784Z" fill="#1D1E38" stroke="#C9A84C" stroke-width="2.1259"/>
<path d="M176.06 51.0625C187.058 51.0627 195.974 59.9794 195.974 70.9775C195.974 81.9755 187.058 90.8914 176.06 90.8916C165.062 90.8916 156.145 81.9756 156.145 70.9775C156.145 59.9792 165.062 51.0625 176.06 51.0625Z" fill="#1D1E38" stroke="#C9A84C" stroke-width="2.1259"/>
<path d="M232.11 83.1152C243.108 83.1154 252.024 92.0321 252.024 103.03C252.024 114.028 243.108 122.944 232.11 122.944C221.112 122.944 212.196 114.028 212.195 103.03C212.195 92.032 221.112 83.1152 232.11 83.1152Z" fill="#1D1E38" stroke="#C9A84C" stroke-width="2.1259"/>
<ellipse cx="56.2375" cy="141.125" rx="2.51726" ry="2.51725" fill="white"/>
</g>
<rect x="0.953071" y="0.105903" width="299.788" height="199.788" stroke="black" stroke-width="0.211806"/>
</g>
<defs>
<filter id="filter0_d_331_1467" x="-5.41806e-05" y="0" width="301.694" height="201.694" filterUnits="userSpaceOnUse" color-interpolation-filters="sRGB">
<feFlood flood-opacity="0" result="BackgroundImageFix"/>
<feColorMatrix in="SourceAlpha" type="matrix" values="0 0 0 0 0 0 0 0 0 0 0 0 0 0 0 0 0 0 127 0" result="hardAlpha"/>
<feOffset dy="0.847222"/>
<feGaussianBlur stdDeviation="0.423611"/>
<feComposite in2="hardAlpha" operator="out"/>
<feColorMatrix type="matrix" values="0 0 0 0 0 0 0 0 0 0 0 0 0 0 0 0 0 0 0.25 0"/>
<feBlend mode="normal" in2="BackgroundImageFix" result="effect1_dropShadow_331_1467"/>
<feBlend mode="normal" in="SourceGraphic" in2="effect1_dropShadow_331_1467" result="shape"/>
</filter>
<filter id="filter1_d_331_1467" x="37.2177" y="122.104" width="38.0408" height="38.0403" filterUnits="userSpaceOnUse" color-interpolation-filters="sRGB">
<feFlood flood-opacity="0" result="BackgroundImageFix"/>
<feColorMatrix in="SourceAlpha" type="matrix" values="0 0 0 0 0 0 0 0 0 0 0 0 0 0 0 0 0 0 127 0" result="hardAlpha"/>
<feOffset/>
<feGaussianBlur stdDeviation="5.31476"/>
<feComposite in2="hardAlpha" operator="out"/>
<feColorMatrix type="matrix" values="0 0 0 0 0.788235 0 0 0 0 0.658824 0 0 0 0 0.298039 0 0 0 1 0"/>
<feBlend mode="normal" in2="BackgroundImageFix" result="effect1_dropShadow_331_1467"/>
<feBlend mode="normal" in="SourceGraphic" in2="effect1_dropShadow_331_1467" result="shape"/>
</filter>
<clipPath id="clip0_331_1467">
<rect x="0.847168" width="300" height="200" fill="white"/>
</clipPath>
</defs>
</svg>
