<svg width="257" height="257" viewBox="0 0 257 257" fill="none" xmlns="http://www.w3.org/2000/svg">
<path d="M128.5 24C136.508 24.0002 143 30.492 143 38.5C143 44.561 139.28 49.7523 134 51.9189V115.08C135.992 115.897 137.762 117.146 139.193 118.709L192.32 88.0361C190.057 81.5857 192.624 74.2351 198.76 70.6924C205.695 66.6886 214.562 69.065 218.566 76C222.57 82.9352 220.195 91.8035 213.26 95.8076C208.28 98.6827 202.303 98.2681 197.847 95.2383L142.917 126.952C142.971 127.461 143 127.977 143 128.5C143 129.687 142.855 130.839 142.586 131.943L195.662 162.587C200.183 157.978 207.409 156.816 213.26 160.193C220.195 164.198 222.57 173.065 218.566 180C214.562 186.935 205.695 189.312 198.76 185.308C198.012 184.876 197.317 184.388 196.678 183.852L142.779 214.97C142.924 215.791 143 216.637 143 217.5C143 225.508 136.508 232 128.5 232C120.492 232 114 225.508 114 217.5C114 216.599 114.082 215.717 114.239 214.861L60.4043 183.78C59.7423 184.344 59.0212 184.857 58.2412 185.308C51.306 189.312 42.4377 186.935 38.4336 180C34.4295 173.065 36.806 164.196 43.7412 160.192C49.7461 156.726 57.1996 158.043 61.6904 162.96L114.543 132.446C114.189 131.192 114 129.868 114 128.5C114 127.792 114.051 127.095 114.149 126.414L59.5996 94.9199C55.1015 98.2346 48.8896 98.78 43.7412 95.8076C36.806 91.8036 34.4295 82.9352 38.4336 76C42.4377 69.065 51.3061 66.6894 58.2412 70.6934C64.2243 74.1479 66.8129 81.2222 64.8398 87.5527L118.159 118.336C119.769 116.698 121.765 115.441 124 114.712V52.2871C118.195 50.3937 114 44.9373 114 38.5C114 30.4919 120.492 24 128.5 24ZM137.835 139.593C135.312 141.718 132.056 143 128.5 143C125.136 143 122.039 141.853 119.579 139.931L65.4111 171.205C65.5867 172.853 65.4753 174.507 65.0977 176.098L118.546 206.956C121.143 204.504 124.646 203 128.5 203C132.393 203 135.928 204.535 138.533 207.032L191.928 176.206C191.487 174.41 191.387 172.528 191.656 170.667L137.835 139.593Z" fill="#C9A84C"/>
</svg>
