<svg width="257" height="257" viewBox="0 0 257 257" fill="none" xmlns="http://www.w3.org/2000/svg">
<path d="M128.5 24C136.508 24.0002 143 30.492 143 38.5C143 42.3176 141.523 45.7895 139.111 48.3789L156.935 79.25H192.073C193.073 75.7652 195.372 72.6482 198.76 70.6924C205.695 66.6886 214.562 69.065 218.566 76C222.57 82.9352 220.195 91.8035 213.26 95.8076C210.117 97.6224 206.576 98.1261 203.271 97.4893L185.368 128.5L202.758 158.62C206.207 157.826 209.953 158.284 213.26 160.193C220.195 164.198 222.57 173.065 218.566 180C214.562 186.935 205.695 189.312 198.76 185.308C195.7 183.541 193.528 180.827 192.399 177.75H156.935L139.463 208.01C141.666 210.553 143 213.871 143 217.5C143 225.508 136.508 232 128.5 232C120.492 232 114 225.508 114 217.5C114 213.871 115.332 210.553 117.535 208.01L100.065 177.75H64.6016C63.4732 180.827 61.3012 183.541 58.2412 185.308C51.306 189.312 42.4377 186.935 38.4336 180C34.4295 173.065 36.806 164.196 43.7412 160.192C47.0472 158.284 50.7921 157.826 54.2402 158.62L71.6309 128.5L53.7266 97.4893C50.4227 98.1255 46.8837 97.6219 43.7412 95.8076C36.806 91.8036 34.4295 82.9352 38.4336 76C42.4377 69.065 51.3061 66.6894 58.2412 70.6934C61.6285 72.6491 63.9269 75.7655 64.9268 79.25H100.065L117.888 48.3789C115.476 45.7895 114 42.3176 114 38.5C114 30.4919 120.492 24 128.5 24ZM125.247 203.365C126.293 203.126 127.382 203 128.5 203C129.618 203 130.707 203.127 131.752 203.366L158.955 156.25H98.0449L125.247 203.365ZM67.2842 168.75H94.8691L87.9727 156.805L67.2842 168.75ZM162.131 168.75H190.716L169.276 156.372L162.131 168.75ZM63.5322 160.523L83.4727 149.011L76.8262 137.499L63.5322 160.523ZM173.775 148.577L192.965 159.656L180.173 137.5L173.775 148.577ZM104.524 147.25H153.477L129 133.118L104.524 147.25ZM64.6035 88.25C64.3211 89.0162 63.97 89.7688 63.5479 90.5C62.9887 91.4685 62.3348 92.3481 61.6045 93.1338L89.2402 141L119.695 88.25H64.6035ZM167.759 141L195.395 93.1328C194.665 92.3474 194.011 91.468 193.452 90.5C193.03 89.7689 192.68 89.016 192.397 88.25H137.305L167.759 141ZM100.773 139.022L124 125.613V98.7939L100.773 139.022ZM133 125.035L155.726 138.156L133 98.7939V125.035ZM110.457 79.25H124V55.793L110.457 79.25ZM133 79.25H146.542L133 55.7949V79.25Z" fill="#C9A84C"/>
</svg>
