<svg width="257" height="257" viewBox="0 0 257 257" fill="none" xmlns="http://www.w3.org/2000/svg">
<path d="M128.5 24C136.508 24.0002 143 30.492 143 38.5C143 44.561 139.28 49.7523 134 51.9189V115.08C135.243 115.59 136.4 116.267 137.441 117.084L191.722 85.7451C190.705 79.9196 193.341 73.821 198.76 70.6924C205.695 66.6886 214.562 69.065 218.566 76C222.57 82.9352 220.195 91.8035 213.26 95.8076C207.852 98.9297 201.269 98.1722 196.733 94.3994L142.707 125.591C142.898 126.531 143 127.504 143 128.5C143 129.141 142.957 129.773 142.876 130.393L196.815 161.534C201.348 157.82 207.884 157.09 213.26 160.193C220.195 164.198 222.57 173.065 218.566 180C214.562 186.935 205.695 189.312 198.76 185.308C193.308 182.16 190.675 176.008 191.741 170.151L138.225 139.254C136.991 140.37 135.564 141.277 134 141.919V204.08C139.281 206.247 143 211.439 143 217.5C143 225.508 136.508 232 128.5 232C120.492 232 114 225.508 114 217.5C114 211.063 118.195 205.605 124 203.712V142.287C122.148 141.683 120.46 140.717 119.02 139.472L65.3145 170.478C66.2267 176.235 63.5912 182.219 58.2412 185.308C51.306 189.312 42.4377 186.935 38.4336 180C34.4295 173.065 36.806 164.196 43.7412 160.192C49.2175 157.031 55.8984 157.848 60.4385 161.746L114.169 130.725C114.057 129.999 114 129.256 114 128.5C114 127.648 114.074 126.814 114.215 126.003L59.9355 94.665C55.4146 98.2053 49.019 98.8547 43.7412 95.8076C36.806 91.8036 34.4295 82.9352 38.4336 76C42.4377 69.065 51.3061 66.6894 58.2412 70.6934C63.7876 73.8958 66.4165 80.2087 65.1992 86.1562L119.229 117.351C120.622 116.19 122.237 115.287 124 114.712V52.2871C118.195 50.3937 114 44.9373 114 38.5C114 30.4919 120.492 24 128.5 24Z" fill="#C9A84C"/>
</svg>
