<svg width="257" height="257" viewBox="0 0 257 257" fill="none" xmlns="http://www.w3.org/2000/svg">
<path d="M198.759 70.6924C205.694 66.6885 214.562 69.0648 218.566 76C222.57 82.9352 220.194 91.8036 213.259 95.8076C209.952 97.7166 206.206 98.1741 202.758 97.3799L139.111 207.62C141.523 210.21 142.999 213.682 142.999 217.5C142.999 225.508 136.507 232 128.499 232C120.491 232 113.999 225.508 113.999 217.5C113.999 213.682 115.475 210.209 117.888 207.619L54.2402 97.3789C50.7918 98.173 47.0466 97.7164 43.7402 95.8076C36.805 91.8036 34.4287 82.9352 38.4326 76C42.4367 69.0648 51.305 66.6883 58.2402 70.6924C61.3003 72.4592 63.4722 75.1732 64.6006 78.25H192.398C193.527 75.1732 195.699 72.4591 198.759 70.6924ZM124 200.205V130.451L63.5908 95.5742L124 200.205ZM133 130.874V200.203L193.04 96.21L133 130.874ZM43.7402 160.192C50.6755 156.188 59.5438 158.565 63.5479 165.5C67.5517 172.435 65.1754 181.304 58.2402 185.308C51.305 189.312 42.4367 186.935 38.4326 180C34.4286 173.065 36.805 164.196 43.7402 160.192ZM193.451 165.5C197.455 158.565 206.324 156.188 213.259 160.192C220.194 164.196 222.569 173.065 218.565 180C214.561 186.935 205.694 189.311 198.759 185.308C191.824 181.304 189.447 172.435 193.451 165.5ZM128.865 122.869L190.559 87.25H67.1729L128.865 122.869ZM128.5 24C136.508 24.0003 143 30.492 143 38.5C143 46.508 136.508 52.9997 128.5 53C120.492 53 114 46.5081 114 38.5C114 30.4919 120.492 24 128.5 24Z" fill="#C9A84C"/>
</svg>
