<svg width="257" height="257" viewBox="0 0 257 257" fill="none" xmlns="http://www.w3.org/2000/svg">
<path d="M128.499 24C136.507 24.0001 142.999 30.492 142.999 38.5C142.999 44.5611 139.279 49.7523 133.999 51.9189V115.08C139.28 117.246 143 122.439 143 128.5C143 129.141 142.957 129.772 142.876 130.392L196.814 161.533C201.347 157.819 207.884 157.089 213.259 160.192C220.194 164.196 222.57 173.065 218.566 180C214.562 186.935 205.694 189.312 198.759 185.308C193.308 182.16 190.672 176.007 191.739 170.15L138.225 139.254C136.991 140.37 135.564 141.277 134 141.919V204.081C139.28 206.248 142.999 211.439 142.999 217.5C142.999 225.508 136.507 232 128.499 232C120.491 232 113.999 225.508 113.999 217.5C113.999 211.062 118.194 205.605 124 203.712V142.287C122.148 141.683 120.46 140.717 119.02 139.472L65.3135 170.479C66.2254 176.236 63.5901 182.219 58.2402 185.308C51.305 189.311 42.4376 186.935 38.4336 180C34.4295 173.065 36.8051 164.196 43.7402 160.192C49.2164 157.031 55.8973 157.848 60.4375 161.746L114.169 130.725C114.057 129.999 114 129.256 114 128.5C114 122.063 118.194 116.607 123.999 114.713V52.2871C118.194 50.3937 113.999 44.9372 113.999 38.5C113.999 30.4919 120.491 24 128.499 24ZM38.4336 76C42.4376 69.0652 51.3052 66.6888 58.2402 70.6924C65.1754 74.6964 67.5518 83.5648 63.5479 90.5C59.5438 97.4352 50.6755 99.8117 43.7402 95.8076C36.8052 91.8035 34.4296 82.9351 38.4336 76ZM198.759 70.6924C205.694 66.6884 214.562 69.0649 218.566 76C222.57 82.9352 220.194 91.8036 213.259 95.8076C206.324 99.8114 197.456 97.4351 193.452 90.5C189.448 83.5648 191.824 74.6965 198.759 70.6924Z" fill="#C9A84C"/>
</svg>
