<svg width="257" height="257" viewBox="0 0 257 257" fill="none" xmlns="http://www.w3.org/2000/svg">
<path d="M128.5 24C136.508 24.0002 143 30.492 143 38.5C143 44.561 139.28 49.7523 134 51.9189V115.08C139.281 117.247 143 122.439 143 128.5C143 134.561 139.28 139.752 134 141.919V204.08C139.281 206.247 143 211.439 143 217.5C143 225.508 136.508 232 128.5 232C120.492 232 114 225.508 114 217.5C114 211.063 118.195 205.605 124 203.712V142.287C118.195 140.394 114 134.937 114 128.5C114 122.063 118.195 116.605 124 114.712V52.2871C118.195 50.3937 114 44.9373 114 38.5C114 30.4919 120.492 24 128.5 24ZM43.7412 160.192C50.6763 156.189 59.5438 158.565 63.5479 165.5C67.5519 172.435 65.1763 181.304 58.2412 185.308C51.306 189.312 42.4377 186.935 38.4336 180C34.4295 173.065 36.806 164.196 43.7412 160.192ZM193.452 165.5C197.456 158.565 206.325 156.189 213.26 160.193C220.195 164.198 222.57 173.065 218.566 180C214.562 186.935 205.695 189.312 198.76 185.308C191.825 181.304 189.448 172.435 193.452 165.5ZM38.4336 76C42.4377 69.065 51.3061 66.6894 58.2412 70.6934C65.1761 74.6975 67.5518 83.5649 63.5479 90.5C59.5438 97.4352 50.6764 99.8116 43.7412 95.8076C36.806 91.8036 34.4295 82.9352 38.4336 76ZM198.76 70.6924C205.695 66.6886 214.562 69.065 218.566 76C222.57 82.9352 220.195 91.8035 213.26 95.8076C206.325 99.8117 197.456 97.4352 193.452 90.5C189.448 83.5648 191.825 74.6964 198.76 70.6924Z" fill="#C9A84C"/>
</svg>
