<svg width="257" height="257" viewBox="0 0 257 257" fill="none" xmlns="http://www.w3.org/2000/svg">
<path d="M128.5 24C136.508 24.0002 143 30.492 143 38.5C143 39.6842 142.856 40.8347 142.588 41.9365L195.987 72.7666C196.808 71.9836 197.734 71.2846 198.76 70.6924C205.695 66.6886 214.562 69.065 218.566 76C222.57 82.9352 220.195 91.8035 213.26 95.8076C212.37 96.3211 211.448 96.7287 210.51 97.0361V158.964C211.449 159.271 212.37 159.68 213.26 160.193C220.195 164.198 222.57 173.065 218.566 180C214.562 186.935 205.695 189.312 198.76 185.308C198.007 184.873 197.308 184.381 196.665 183.841L142.776 214.953C142.923 215.78 143 216.631 143 217.5C143 225.508 136.508 232 128.5 232C120.492 232 114 225.508 114 217.5C114 216.631 114.076 215.78 114.223 214.953L60.334 183.841C59.6914 184.381 58.9934 184.873 58.2412 185.308C51.306 189.312 42.4377 186.935 38.4336 180C34.4295 173.065 36.806 164.196 43.7412 160.192C44.6308 159.679 45.5523 159.27 46.4912 158.963V97.0361C45.5524 96.7287 44.6308 96.3212 43.7412 95.8076C36.806 91.8036 34.4295 82.9352 38.4336 76C42.4377 69.065 51.3061 66.6894 58.2412 70.6934C59.2665 71.2853 60.1916 71.984 61.0117 72.7666L114.41 41.9365C114.142 40.8348 114 39.6841 114 38.5C114 30.4919 120.492 24 128.5 24ZM118.48 207.018C121.084 204.529 124.614 203 128.5 203C132.386 203 135.915 204.529 138.519 207.018L189.214 177.75H67.7861L118.48 207.018ZM131.236 52.7402C130.35 52.9095 129.436 53 128.5 53C127.564 53 126.649 52.9096 125.763 52.7402L61.9551 163.259C62.545 163.942 63.0799 164.69 63.5479 165.5C64.1523 166.547 64.6107 167.638 64.9307 168.75H192.069C192.389 167.638 192.848 166.547 193.452 165.5C193.92 164.69 194.455 163.942 195.045 163.259L131.236 52.7402ZM201.51 156.456V97.0332C198.228 95.963 195.314 93.7249 193.452 90.5C191.672 87.4175 191.154 83.9534 191.735 80.7041L140.794 51.2939L201.51 156.456ZM65.2637 80.7041C65.8451 83.9536 65.3276 87.4174 63.5479 90.5C61.6861 93.7246 58.7729 95.9629 55.4912 97.0332V156.455L116.205 51.2939L65.2637 80.7041Z" fill="#C9A84C"/>
</svg>
