<svg width="257" height="257" viewBox="0 0 257 257" fill="none" xmlns="http://www.w3.org/2000/svg">
<path d="M128.5 24C136.508 24.0002 143 30.492 143 38.5C143 39.6842 142.856 40.8347 142.588 41.9365L195.987 72.7666C196.808 71.9836 197.734 71.2846 198.76 70.6924C205.695 66.6886 214.562 69.065 218.566 76C222.57 82.9352 220.195 91.8035 213.26 95.8076C212.37 96.3211 211.448 96.7287 210.51 97.0361V158.964C211.449 159.271 212.37 159.68 213.26 160.193C220.195 164.198 222.57 173.065 218.566 180C214.562 186.935 205.695 189.312 198.76 185.308C198.007 184.873 197.308 184.381 196.665 183.841L142.776 214.953C142.923 215.78 143 216.631 143 217.5C143 225.508 136.508 232 128.5 232C120.492 232 114 225.508 114 217.5C114 216.631 114.076 215.78 114.223 214.953L60.334 183.841C59.6914 184.381 58.9934 184.873 58.2412 185.308C51.306 189.312 42.4377 186.935 38.4336 180C34.4295 173.065 36.806 164.196 43.7412 160.192C44.6308 159.679 45.5523 159.27 46.4912 158.963V97.0361C45.5524 96.7287 44.6308 96.3212 43.7412 95.8076C36.806 91.8036 34.4295 82.9352 38.4336 76C42.4377 69.065 51.3061 66.6894 58.2412 70.6934C59.2667 71.2854 60.1915 71.9848 61.0117 72.7676L114.41 41.9375C114.142 40.8355 114 39.6844 114 38.5C114 30.4919 120.492 24 128.5 24ZM118.48 207.018C121.084 204.529 124.614 203 128.5 203C132.386 203 135.915 204.529 138.519 207.018L147.062 202.085H109.937L118.48 207.018ZM92.5889 154.731L101.972 193.085H157.421L166.583 155.627L128.811 133.818L92.5889 154.731ZM55.4912 131.159L89.6914 190.396L91.2363 191.288L82.7266 156.498L55.4912 129.263V131.159ZM177.527 152.97L169.143 187.244L201.51 131.185V128.987L177.527 152.97ZM55.4912 158.967C58.7728 160.037 61.6861 162.275 63.5479 165.5C65.491 168.866 65.9311 172.686 65.0771 176.186L74.1016 181.396L55.4912 149.16V158.967ZM182.919 181.383L191.923 176.186C191.069 172.686 191.509 168.866 193.452 165.5C195.314 162.275 198.228 160.037 201.51 158.967V149.184L182.919 181.383ZM59.4453 119.075L86.8613 146.491L124.087 125H124V84.5645L84.8926 74.999L59.4453 119.075ZM134 83.4297V125H133.536L170.19 146.163L197.463 118.892L171.669 74.2158L134 83.4297ZM65.2637 80.7041C65.8451 83.9536 65.3276 87.4174 63.5479 90.5C61.6861 93.7246 58.7729 95.9629 55.4912 97.0332V107.925L74.1787 75.5566L65.2637 80.7041ZM201.51 107.9V97.0332C198.228 95.963 195.314 93.7249 193.452 90.5C191.673 87.4176 191.153 83.9534 191.734 80.7041L182.844 75.5713L201.51 107.9ZM90.5703 66.0928L126.68 74.9258L165.344 65.4678L162.802 64H94.1953L90.5703 66.0928ZM137.84 49.5889C135.317 51.7163 132.059 52.9999 128.5 53C124.941 53 121.682 51.7168 119.158 49.5889L109.785 55H147.213L137.84 49.5889Z" fill="#C9A84C"/>
</svg>
