<svg width="257" height="257" viewBox="0 0 257 257" fill="none" xmlns="http://www.w3.org/2000/svg">
<path d="M128.5 24C136.508 24.0002 143 30.492 143 38.5C143 46.508 136.508 52.9998 128.5 53C125.209 53 122.174 51.9024 119.74 50.0547L65.377 81.4414C65.5736 82.9962 65.52 84.5887 65.1992 86.1562L119.229 117.351C121.742 115.258 124.974 114 128.5 114C136.508 114 143 120.492 143 128.5C143 129.141 142.957 129.773 142.876 130.393L196.815 161.534C201.348 157.82 207.884 157.09 213.26 160.193C220.195 164.198 222.57 173.065 218.566 180C214.562 186.935 205.695 189.312 198.76 185.308C197.939 184.834 197.183 184.291 196.493 183.692L142.734 214.73C142.908 215.627 143 216.553 143 217.5C143 225.508 136.508 232 128.5 232C120.492 232 114 225.508 114 217.5C114 209.492 120.492 203 128.5 203C131.925 203 135.072 204.189 137.553 206.175L191.674 174.928C191.434 173.358 191.451 171.744 191.741 170.151L138.225 139.254C135.652 141.581 132.242 143 128.5 143C120.492 143 114 136.508 114 128.5C114 127.648 114.074 126.814 114.215 126.003L59.9355 94.665C55.4146 98.2053 49.019 98.8547 43.7412 95.8076C36.806 91.8036 34.4295 82.9352 38.4336 76C42.4377 69.065 51.3061 66.6894 58.2412 70.6934C59.1706 71.23 60.0171 71.8549 60.7783 72.5498L114.339 41.627C114.117 40.6198 114 39.5737 114 38.5C114 30.4919 120.492 24 128.5 24ZM43.7412 160.192C50.6763 156.189 59.5438 158.565 63.5479 165.5C67.5519 172.435 65.1763 181.304 58.2412 185.308C51.306 189.312 42.4377 186.935 38.4336 180C34.4295 173.065 36.806 164.196 43.7412 160.192ZM198.76 70.6924C205.695 66.6886 214.562 69.065 218.566 76C222.57 82.9352 220.195 91.8035 213.26 95.8076C206.325 99.8117 197.456 97.4352 193.452 90.5C189.448 83.5648 191.825 74.6964 198.76 70.6924Z" fill="#C9A84C"/>
</svg>
